<svg width="87" height="87" viewBox="0 0 87 87" fill="none" xmlns="http://www.w3.org/2000/svg">
<path d="M42.578 67.1568L31.004 85.1018C30.3517 86.1291 29.0704 86.5666 27.9259 86.1565C26.7814 85.7425 26.0743 84.594 26.2228 83.3831L30.0236 51.6211L19.4106 51.7031V51.7071C18.5864 51.711 17.809 51.3203 17.3168 50.6602C16.8246 49.9961 16.6723 49.1407 16.9106 48.3516L19.5161 40.2149V40.2188C19.7075 39.5352 20.1645 38.9649 20.7856 38.629C21.4106 38.293 22.1411 38.2227 22.8129 38.4415C23.4887 38.6563 24.0434 39.1329 24.3559 39.7696C24.6723 40.4024 24.7114 41.1368 24.4731 41.8008L22.9614 46.5078L32.9419 46.4335V46.4375C33.688 46.4375 34.395 46.7578 34.8911 47.3125C35.3872 47.871 35.6215 48.6133 35.5356 49.3516L32.7231 72.8395L38.1801 64.3707V64.3747C38.977 63.2067 40.559 62.8864 41.7465 63.652C42.934 64.4176 43.2934 65.9918 42.5551 67.195L42.578 67.1568ZM85.433 81.7388H85.4291C86.4486 82.7583 86.4486 84.4068 85.4291 85.4263C84.4135 86.4458 82.7611 86.4458 81.7416 85.4263L0.764625 4.50032C-0.254875 3.48082 -0.254875 1.82842 0.764625 0.812816C1.78022 -0.206684 3.43262 -0.206684 4.45212 0.812816L25.3901 21.7698L31.8042 1.80082C32.1519 0.722716 33.1519 -0.00388438 34.2847 1.56232e-05H61.9917C62.9097 1.56232e-05 63.7612 0.480485 64.23 1.26952C64.7027 2.05858 64.7222 3.03512 64.2847 3.84372L54.2027 22.4057L66.7027 22.187H66.7535C67.7066 22.187 68.5816 22.7065 69.0347 23.5425C69.4917 24.3784 69.4566 25.3941 68.9409 26.1948L53.6399 49.9998L85.433 81.7388ZM29.554 25.8838L49.866 46.2708L61.971 27.5208L49.826 27.7396C48.9081 27.7396 48.0565 27.2591 47.5877 26.4701C47.1151 25.681 47.0955 24.7045 47.533 23.8959L57.658 5.25087H36.178L29.678 25.4889C29.6507 25.6256 29.6077 25.7584 29.553 25.8834L29.554 25.8838Z" fill="black"/>
</svg>
