<svg width="87" height="72" viewBox="0 0 87 72" fill="none" xmlns="http://www.w3.org/2000/svg">
<path d="M32.313 35.5625C32.3169 37.8086 34.1411 39.625 36.3833 39.625C40.1411 39.625 43.5239 41.8905 44.9614 45.3593C46.395 48.8281 45.602 52.8202 42.9419 55.4723C40.2857 58.1285 36.2935 58.9177 32.8249 57.4802C29.3561 56.0388 27.0983 52.6521 27.1022 48.8982C27.1022 47.4568 28.2702 46.2926 29.7077 46.2926C31.1452 46.2926 32.3132 47.4568 32.3132 48.8982C32.3093 50.5466 33.2976 52.0349 34.8171 52.6677C36.3405 53.3005 38.0944 52.9567 39.2624 51.7927C40.4265 50.6286 40.778 48.8746 40.1491 47.3512C39.5202 45.8278 38.0319 44.8357 36.3835 44.8357C32.6296 44.8396 29.239 42.5779 27.8015 39.1091C26.364 35.6403 27.157 31.6442 29.8132 28.992C32.4655 26.3358 36.4616 25.5428 39.9302 26.9803C43.3988 28.4178 45.6607 31.8085 45.6568 35.5624C45.6568 37.0038 44.4888 38.1679 43.0513 38.1679C41.6138 38.1679 40.4458 37.0038 40.4458 35.5624C40.5044 34.4491 40.1021 33.3593 39.3325 32.5507C38.563 31.7421 37.4966 31.285 36.3794 31.285C35.2622 31.285 34.1958 31.7421 33.4263 32.5507C32.6568 33.3592 32.2544 34.4492 32.313 35.5625ZM18.926 26.2812C17.4885 26.2812 16.3205 27.4492 16.3205 28.8867V54.9298C16.3205 56.3673 17.4885 57.5314 18.926 57.5314C20.3635 57.5314 21.5315 56.3673 21.5315 54.9298V28.8867C21.5315 28.1953 21.2542 27.5351 20.7659 27.0469C20.2776 26.5587 19.6174 26.2812 18.926 26.2812ZM69.969 32.0117V52.4497C69.9612 55.6099 67.3987 58.1724 64.2385 58.1802H56.1565C52.9924 58.1724 50.4299 55.6099 50.426 52.4497V32.0117C50.4299 28.8515 52.9924 26.289 56.1565 26.2812H64.2385C67.3987 26.2891 69.9612 28.8515 69.969 32.0117ZM64.762 32.0117H64.7581C64.7542 31.7266 64.5237 31.4961 64.2386 31.4922H56.1566C55.8675 31.4922 55.6331 31.7227 55.6331 32.0117V52.4497C55.6331 52.5865 55.6878 52.7193 55.7855 52.8169C55.8831 52.9146 56.0159 52.9693 56.1566 52.9693H64.2385C64.5237 52.9654 64.7542 52.7349 64.7581 52.4497L64.762 32.0117ZM86.289 21.1367V62.7108C86.2851 67.8163 82.1484 71.9529 77.039 71.9607H9.25C4.1406 71.9529 0.0039 67.8163 0 62.7108V21.1367C0 16.0273 4.1367 11.8828 9.25 11.875H11.6445C13.2343 11.875 14.6797 10.9415 15.332 9.49225L17.1015 5.46885C18.5976 2.14465 21.9023 4.77883e-05 25.5507 4.77883e-05H60.7067C64.3669 -0.0116712 67.6872 2.13285 69.1872 5.46885L70.988 9.48835V9.49225C71.6403 10.9415 73.0857 11.8751 74.6755 11.8751H77.07C82.1677 11.8985 86.289 16.0391 86.289 21.1367ZM81.082 21.1367C81.082 18.9023 79.2734 17.0898 77.039 17.0859H74.6445C70.9961 17.0859 67.6914 14.9414 66.1953 11.6171L64.4023 7.59765L64.4062 7.59374C63.746 6.14454 62.3007 5.21094 60.707 5.21094H25.582C23.9882 5.21094 22.5429 6.14453 21.8828 7.59374L20.0898 11.6132L20.0937 11.6171C18.5976 14.9413 15.2929 17.0859 11.6445 17.0859H9.25002C7.01562 17.0899 5.20701 18.9023 5.20701 21.1367V62.7108C5.20701 64.9413 7.01562 66.7498 9.25002 66.7498H77.039C79.2734 66.7498 81.082 64.9413 81.082 62.7108L81.082 21.1367Z" fill="black"/>
</svg>
