<svg width="87" height="71" viewBox="0 0 87 71" fill="none" xmlns="http://www.w3.org/2000/svg">
<path d="M76.5 12.3554H73.9609V9.8945C73.9531 4.4336 69.5273 0.0039 64.0625 0H9.89449H9.8984C4.4336 0.003906 0.0078 4.4336 0 9.8945V48.6875C0.007813 54.1523 4.4336 58.5781 9.8984 58.582H12.3554V61.125C12.3593 66.543 16.7499 70.9336 22.1679 70.9375H43.1679C44.6054 70.9375 45.7734 69.7734 45.7734 68.332C45.7734 66.8945 44.6054 65.7304 43.1679 65.7304H22.1879C19.6488 65.7226 17.5902 63.664 17.5863 61.1249V58.5819H37.4693C38.9107 58.5819 40.0748 57.4178 40.0748 55.9803C40.0748 54.5389 38.9107 53.3748 37.4693 53.3748H9.9183C7.3285 53.3748 5.2308 51.2771 5.2308 48.6873V43.5935C8.1683 40.9997 18.9928 32.6675 29.4688 40.3123C37.4258 46.1248 43.6678 40.6365 48.6758 36.2303C54.6133 31.0233 59.7578 26.4998 68.7498 33.1873V40.2615C68.7498 41.699 69.9178 42.8631 71.3553 42.8631C72.7928 42.8631 73.9608 41.699 73.9608 40.2615V17.5625H76.4999C77.7226 17.5625 78.8944 18.0469 79.7577 18.9102C80.621 19.7735 81.1054 20.9454 81.1054 22.168V61.125C81.1054 62.3477 80.621 63.5156 79.7577 64.3789C78.8944 65.2422 77.7225 65.7305 76.4999 65.7305C75.0624 65.7305 73.8983 66.8946 73.8983 68.3321C73.8983 69.7735 75.0624 70.9376 76.4999 70.9376C81.9218 70.9376 86.3124 66.5431 86.3124 61.1251V22.1681C86.3085 16.7501 81.918 12.3593 76.5 12.3554ZM45.25 32.3434C39.4883 37.4059 36.7188 39.1676 32.551 36.1246C22.6565 28.8941 11.989 32.4566 5.23899 37.0113V9.92932L5.2429 9.92541C5.23899 8.68321 5.73118 7.48791 6.6101 6.60901C7.49291 5.7301 8.6843 5.23791 9.9304 5.23791H64.0984H64.0945C66.6843 5.23791 68.782 7.33951 68.782 9.92541V26.9874C58.087 21.0421 50.762 27.4679 45.251 32.3429L45.25 32.3434ZM33.648 8.6364C29.8941 8.6364 26.5074 10.8981 25.0738 14.363C23.6363 17.8318 24.4293 21.8239 27.0855 24.48C29.7378 27.1323 33.73 27.9292 37.1985 26.4917C40.667 25.0542 42.929 21.6714 42.929 17.9175C42.9212 12.7925 38.769 8.6403 33.648 8.6364ZM33.648 21.9804C31.9996 21.9804 30.5113 20.9843 29.8824 19.4609C29.2535 17.9375 29.6051 16.1875 30.7691 15.0234C31.9371 13.8593 33.691 13.5117 35.2144 14.1445C36.7339 14.7812 37.7222 16.2695 37.7183 17.9179C37.7144 20.1601 35.8902 21.9804 33.648 21.9804ZM73.586 50.6564L62.031 69.6874C61.5857 70.4218 60.8083 70.8905 59.949 70.9374H59.8357C59.0154 70.9374 58.2459 70.5507 57.7498 69.8944L51.2303 61.5624C50.7381 61.0272 50.492 60.3085 50.5545 59.5819C50.617 58.8553 50.9803 58.1874 51.5545 57.7421C52.1327 57.2968 52.867 57.1132 53.5857 57.2343C54.3044 57.3554 54.9373 57.7733 55.3357 58.3866L59.5037 63.7733L69.1248 47.9683C69.8709 46.7378 71.4725 46.3433 72.7029 47.0894C73.9373 47.8316 74.3279 49.4332 73.5857 50.6675L73.586 50.6564Z" fill="black"/>
</svg>
