<svg width="16" height="16" viewBox="0 0 16 16" fill="none" xmlns="http://www.w3.org/2000/svg">
<rect width="16" height="16" fill="black"/>
<path d="M1.86667 4.2666H7.88817V7.8795H1.86667V4.2666Z" fill="#DFC01F"/>
<path d="M14.1505 4.2666C14.0646 4.50746 13.9768 4.74832 13.8869 4.98918C13.801 5.23004 13.7132 5.4709 13.6234 5.71176C13.5374 5.95262 13.4496 6.19348 13.3598 6.43434C13.2739 6.6752 13.186 6.91606 13.0962 7.15692C13.0103 7.39778 12.9224 7.63864 12.8326 7.8795H9.44111C9.29662 7.47807 9.15019 7.07664 9.0018 6.6752C8.85731 6.27377 8.71283 5.87234 8.56834 5.4709C8.42386 5.06947 8.27742 4.66804 8.12903 4.2666H10.7415C10.7649 4.39185 10.7883 4.5171 10.8118 4.64234C10.8391 4.76438 10.8645 4.88802 10.8879 5.01327C10.9113 5.13852 10.9348 5.26376 10.9582 5.38901C10.9816 5.51426 11.0051 5.63951 11.0285 5.76475C11.0519 5.89 11.0753 6.01525 11.0988 6.14049C11.1261 6.26253 11.1515 6.38617 11.1749 6.51142C11.1788 6.51142 11.1808 6.51142 11.1808 6.51142C11.1847 6.51142 11.1866 6.51142 11.1866 6.51142C11.2062 6.40544 11.2257 6.29946 11.2452 6.19348C11.2686 6.08429 11.2901 5.97671 11.3096 5.87073C11.3292 5.76475 11.3487 5.65877 11.3682 5.5528C11.3917 5.44361 11.4131 5.33602 11.4327 5.23004C11.4561 5.12085 11.4776 5.01327 11.4971 4.90729C11.5166 4.80131 11.5361 4.69533 11.5557 4.58935C11.5791 4.48016 11.6006 4.37258 11.6201 4.2666H14.1505Z" fill="#DFC01F"/>
<path d="M8.12903 4.2666H9.45376V7.8795H8.12903V4.2666Z" fill="#DFC01F"/>
<path d="M5.51289 8.12036H7.88817C7.88817 8.23919 7.88817 8.35962 7.88817 8.48165C7.88817 8.60048 7.88817 8.72091 7.88817 8.84294C7.88817 8.96177 7.88817 9.0822 7.88817 9.20423C7.88817 9.32306 7.88817 9.44349 7.88817 9.56552C7.88817 9.68435 7.88817 9.80478 7.88817 9.92681C7.88817 10.2287 7.88817 10.5306 7.88817 10.8324C7.88817 11.1311 7.88817 11.4314 7.88817 11.7333H5.03166L4.25429 9.99907C4.25429 9.99586 4.25224 9.99425 4.24812 9.99425C4.24812 9.99425 4.24607 9.99425 4.24196 9.99425C4.24196 9.99425 4.24196 9.99586 4.24196 9.99907C4.24196 10.2817 4.24196 10.5707 4.24196 10.8662C4.24196 11.1616 4.24196 11.4507 4.24196 11.7333H1.86667C1.86667 11.4924 1.86667 11.2515 1.86667 11.0107C1.86667 10.7698 1.86667 10.529 1.86667 10.2881C1.86667 10.0472 1.86667 9.80638 1.86667 9.56552C1.86667 9.32466 1.86667 9.0838 1.86667 8.84294C1.86667 8.60208 1.86667 8.36122 1.86667 8.12036H4.63064L5.50055 10.1195C5.50466 10.1195 5.50672 10.1195 5.50672 10.1195C5.51083 10.1195 5.51289 10.1195 5.51289 10.1195C5.51289 10.1163 5.51289 10.1147 5.51289 10.1147V8.12036Z" fill="#DFC01F"/>
<path d="M11.933 8.12036C12.3056 8.12036 12.6301 8.16211 12.9066 8.24561C13.187 8.3259 13.4174 8.43669 13.5977 8.578C13.782 8.71609 13.9202 8.87345 14.0123 9.05008C14.1045 9.22671 14.1505 9.40977 14.1505 9.59924C14.1505 9.80157 14.1025 9.99425 14.0063 10.1773C13.9142 10.3571 13.7739 10.5177 13.5856 10.659C13.4014 10.8003 13.171 10.9127 12.8946 10.9962C12.6181 11.0765 12.2976 11.1167 11.933 11.1167H10.641C10.641 11.1167 10.639 11.1183 10.635 11.1215C10.635 11.1215 10.633 11.1215 10.629 11.1215C10.629 11.1215 10.629 11.1231 10.629 11.1263V11.7333H8.12903C8.12903 11.5181 8.12903 11.3029 8.12903 11.0878C8.12903 10.8726 8.12903 10.6574 8.12903 10.4423C8.12903 10.2271 8.12903 10.0119 8.12903 9.79675C8.12903 9.58158 8.12903 9.36641 8.12903 9.15124C8.12903 8.97782 8.12903 8.80601 8.12903 8.6358C8.12903 8.46238 8.12903 8.29057 8.12903 8.12036H11.933ZM11.1939 10.0713C11.3141 10.0713 11.4142 10.0553 11.4943 10.0232C11.5785 9.98783 11.6406 9.94448 11.6806 9.89309C11.7207 9.8385 11.7407 9.7839 11.7407 9.72931C11.7407 9.6715 11.7207 9.61851 11.6806 9.57034C11.6406 9.51896 11.5805 9.47721 11.5004 9.44509C11.4202 9.41298 11.3181 9.39692 11.1939 9.39692H10.641C10.637 9.39692 10.633 9.39853 10.629 9.40174C10.629 9.40174 10.629 9.40334 10.629 9.40656V10.0665C10.633 10.0665 10.635 10.0681 10.635 10.0713C10.639 10.0713 10.641 10.0713 10.641 10.0713H11.1939Z" fill="#DFC01F"/>
</svg>
