<svg width="32" height="32" viewBox="0 0 32 32" fill="none" xmlns="http://www.w3.org/2000/svg">
<rect width="32" height="32" fill="black"/>
<path d="M3.73334 8.53333H15.7763V15.7591H3.73334V8.53333Z" fill="#DFC01F"/>
<path d="M28.3011 8.53333C28.1292 9.01505 27.9535 9.49677 27.7739 9.97849C27.6021 10.4602 27.4263 10.9419 27.2467 11.4236C27.0749 11.9054 26.8992 12.3871 26.7195 12.8688C26.5477 13.3505 26.372 13.8323 26.1924 14.314C26.0205 14.7957 25.8448 15.2774 25.6652 15.7591H18.8822C18.5932 14.9563 18.3004 14.1534 18.0036 13.3505C17.7146 12.5477 17.4257 11.7448 17.1367 10.9419C16.8477 10.1391 16.5548 9.33619 16.2581 8.53333H21.4829C21.5298 8.78382 21.5767 9.03431 21.6235 9.28481C21.6782 9.52888 21.729 9.77616 21.7758 10.0267C21.8227 10.2772 21.8695 10.5276 21.9164 10.7781C21.9633 11.0286 22.0101 11.2791 22.057 11.5296C22.1038 11.7801 22.1507 12.0306 22.1976 12.2811C22.2522 12.5252 22.303 12.7725 22.3499 13.023C22.3577 13.023 22.3616 13.023 22.3616 13.023C22.3694 13.023 22.3733 13.023 22.3733 13.023C22.4123 12.811 22.4514 12.599 22.4904 12.3871C22.5373 12.1687 22.5802 11.9535 22.6193 11.7416C22.6583 11.5296 22.6974 11.3177 22.7364 11.1057C22.7833 10.8873 22.8263 10.6722 22.8653 10.4602C22.9122 10.2418 22.9551 10.0267 22.9942 9.8147C23.0332 9.60274 23.0723 9.39079 23.1113 9.17883C23.1582 8.96045 23.2011 8.74528 23.2402 8.53333H28.3011Z" fill="#DFC01F"/>
<path d="M16.2581 8.53333H18.9075V15.7591H16.2581V8.53333Z" fill="#DFC01F"/>
<path d="M11.0258 16.2408H15.7763C15.7763 16.4785 15.7763 16.7194 15.7763 16.9634C15.7763 17.2011 15.7763 17.4419 15.7763 17.686C15.7763 17.9237 15.7763 18.1645 15.7763 18.4086C15.7763 18.6462 15.7763 18.8871 15.7763 19.1312C15.7763 19.3688 15.7763 19.6097 15.7763 19.8537C15.7763 20.4575 15.7763 21.0613 15.7763 21.665C15.7763 22.2624 15.7763 22.8629 15.7763 23.4667H10.0633L8.50859 19.9983C8.50859 19.9918 8.50448 19.9886 8.49625 19.9886C8.49625 19.9886 8.49214 19.9886 8.48391 19.9886C8.48391 19.9886 8.48391 19.9918 8.48391 19.9983C8.48391 20.5635 8.48391 21.1415 8.48391 21.7325C8.48391 22.3234 8.48391 22.9014 8.48391 23.4667H3.73334C3.73334 22.9849 3.73334 22.5032 3.73334 22.0215C3.73334 21.5398 3.73334 21.058 3.73334 20.5763C3.73334 20.0946 3.73334 19.6129 3.73334 19.1312C3.73334 18.6494 3.73334 18.1677 3.73334 17.686C3.73334 17.2043 3.73334 16.7226 3.73334 16.2408H9.26128L11.0011 20.2391C11.0093 20.2391 11.0134 20.2391 11.0134 20.2391C11.0217 20.2391 11.0258 20.2391 11.0258 20.2391C11.0258 20.2327 11.0258 20.2295 11.0258 20.2295V16.2408Z" fill="#DFC01F"/>
<path d="M23.8661 16.2408C24.6112 16.2408 25.2603 16.3243 25.8131 16.4913C26.374 16.6519 26.8348 16.8735 27.1953 17.1561C27.5639 17.4323 27.8403 17.747 28.0246 18.1003C28.2089 18.4535 28.3011 18.8197 28.3011 19.1986C28.3011 19.6033 28.2049 19.9886 28.0126 20.3547C27.8283 20.7144 27.5479 21.0356 27.1713 21.3182C26.8027 21.6008 26.342 21.8256 25.7891 21.9926C25.2362 22.1532 24.5952 22.2334 23.8661 22.2334H21.282C21.282 22.2334 21.278 22.2367 21.27 22.2431C21.27 22.2431 21.266 22.2431 21.2579 22.2431C21.2579 22.2431 21.2579 22.2463 21.2579 22.2527V23.4667H16.2581C16.2581 23.0363 16.2581 22.606 16.2581 22.1756C16.2581 21.7453 16.2581 21.315 16.2581 20.8846C16.2581 20.4543 16.2581 20.024 16.2581 19.5936C16.2581 19.1633 16.2581 18.7329 16.2581 18.3026C16.2581 17.9558 16.2581 17.6121 16.2581 17.2717C16.2581 16.9249 16.2581 16.5813 16.2581 16.2408H23.8661ZM22.3877 20.1428C22.6281 20.1428 22.8284 20.1107 22.9887 20.0464C23.1569 19.9758 23.2811 19.8891 23.3613 19.7863C23.4414 19.6771 23.4815 19.5679 23.4815 19.4587C23.4815 19.3431 23.4414 19.2371 23.3613 19.1408C23.2811 19.038 23.161 18.9545 23.0007 18.8903C22.8404 18.8261 22.6361 18.794 22.3877 18.794H21.282C21.274 18.794 21.266 18.7972 21.2579 18.8036C21.2579 18.8036 21.2579 18.8068 21.2579 18.8132V20.1331C21.266 20.1331 21.27 20.1364 21.27 20.1428C21.278 20.1428 21.282 20.1428 21.282 20.1428H22.3877Z" fill="#DFC01F"/>
</svg>
