<svg width="180" height="180" viewBox="0 0 180 180" fill="none" xmlns="http://www.w3.org/2000/svg">
<rect width="180" height="180" fill="black"/>
<path d="M21 48H88.7419V88.6452H21V48Z" fill="#DFC01F"/>
<path d="M159.194 48C158.227 50.7097 157.239 53.4194 156.228 56.129C155.262 58.8387 154.273 61.5484 153.263 64.2581C152.296 66.9677 151.308 69.6774 150.297 72.3871C149.331 75.0968 148.343 77.8065 147.332 80.5161C146.366 83.2258 145.377 85.9355 144.367 88.6452H106.212C104.587 84.129 102.94 79.6129 101.27 75.0968C99.6448 70.5806 98.0193 66.0645 96.3939 61.5484C94.7684 57.0323 93.121 52.5161 91.4516 48H120.842C121.105 49.409 121.369 50.8181 121.632 52.2271C121.94 53.6 122.225 54.991 122.489 56.4C122.753 57.809 123.016 59.2181 123.28 60.6271C123.543 62.0361 123.807 63.4452 124.071 64.8542C124.334 66.2632 124.598 67.6723 124.861 69.0813C125.169 70.4542 125.454 71.8452 125.718 73.2542C125.762 73.2542 125.784 73.2542 125.784 73.2542C125.828 73.2542 125.85 73.2542 125.85 73.2542C126.069 72.0619 126.289 70.8697 126.509 69.6774C126.772 68.449 127.014 67.2387 127.234 66.0465C127.453 64.8542 127.673 63.6619 127.893 62.4697C128.156 61.2413 128.398 60.031 128.617 58.8387C128.881 57.6103 129.123 56.4 129.342 55.2077C129.562 54.0155 129.782 52.8232 130.001 51.631C130.265 50.4026 130.506 49.1923 130.726 48H159.194Z" fill="#DFC01F"/>
<path d="M91.4516 48H106.355V88.6452H91.4516V48Z" fill="#DFC01F"/>
<path d="M62.02 91.3549H88.7419C88.7419 92.6916 88.7419 94.0465 88.7419 95.4194C88.7419 96.7562 88.7419 98.111 88.7419 99.4839C88.7419 100.821 88.7419 102.176 88.7419 103.548C88.7419 104.885 88.7419 106.24 88.7419 107.613C88.7419 108.95 88.7419 110.305 88.7419 111.677C88.7419 115.074 88.7419 118.47 88.7419 121.866C88.7419 125.226 88.7419 128.604 88.7419 132H56.6062L47.8608 112.49C47.8608 112.454 47.8377 112.436 47.7914 112.436C47.7914 112.436 47.7682 112.436 47.722 112.436C47.722 112.436 47.722 112.454 47.722 112.49C47.722 115.67 47.722 118.921 47.722 122.245C47.722 125.569 47.722 128.821 47.722 132H21C21 129.29 21 126.581 21 123.871C21 121.161 21 118.452 21 115.742C21 113.032 21 110.323 21 107.613C21 104.903 21 102.194 21 99.4839C21 96.7742 21 94.0645 21 91.3549H52.0947L61.8812 113.845C61.9274 113.845 61.9506 113.845 61.9506 113.845C61.9968 113.845 62.02 113.845 62.02 113.845C62.02 113.809 62.02 113.791 62.02 113.791V91.3549Z" fill="#DFC01F"/>
<path d="M134.247 91.3549C138.438 91.3549 142.089 91.8245 145.199 92.7639C148.354 93.6671 150.946 94.9136 152.974 96.5032C155.047 98.0568 156.602 99.8271 157.639 101.814C158.675 103.801 159.194 105.861 159.194 107.992C159.194 110.268 158.653 112.436 157.571 114.496C156.534 116.519 154.957 118.325 152.839 119.915C150.765 121.505 148.174 122.769 145.064 123.708C141.954 124.612 138.348 125.063 134.247 125.063H119.711C119.711 125.063 119.689 125.081 119.644 125.117C119.644 125.117 119.621 125.117 119.576 125.117C119.576 125.117 119.576 125.136 119.576 125.172V132H91.4516C91.4516 129.579 91.4516 127.159 91.4516 124.738C91.4516 122.317 91.4516 119.897 91.4516 117.476C91.4516 115.056 91.4516 112.635 91.4516 110.214C91.4516 107.794 91.4516 105.373 91.4516 102.952C91.4516 101.001 91.4516 99.0684 91.4516 97.1536C91.4516 95.2026 91.4516 93.2697 91.4516 91.3549H134.247ZM125.931 113.303C127.283 113.303 128.41 113.123 129.311 112.761C130.258 112.364 130.956 111.876 131.407 111.298C131.858 110.684 132.083 110.07 132.083 109.456C132.083 108.805 131.858 108.209 131.407 107.667C130.956 107.089 130.28 106.619 129.379 106.258C128.478 105.897 127.328 105.716 125.931 105.716H119.711C119.666 105.716 119.621 105.734 119.576 105.77C119.576 105.77 119.576 105.788 119.576 105.825V113.249C119.621 113.249 119.644 113.267 119.644 113.303C119.689 113.303 119.711 113.303 119.711 113.303H125.931Z" fill="#DFC01F"/>
</svg>
