<svg width="96" height="96" viewBox="0 0 96 96" fill="none" xmlns="http://www.w3.org/2000/svg">
<rect width="96" height="96" fill="black"/>
<path d="M11.2 25.6H47.329V47.2774H11.2V25.6Z" fill="#DFC01F"/>
<path d="M84.9032 25.6C84.3877 27.0451 83.8606 28.4903 83.3217 29.9355C82.8062 31.3806 82.279 32.8258 81.7402 34.2709C81.2247 35.7161 80.6975 37.1613 80.1586 38.6064C79.6432 40.0516 79.116 41.4968 78.5771 42.9419C78.0616 44.3871 77.5345 45.8322 76.9956 47.2774H56.6466C55.7797 44.8688 54.9011 42.4602 54.0108 40.0516C53.1439 37.643 52.277 35.2344 51.41 32.8258C50.5431 30.4172 49.6645 28.0086 48.7742 25.6H64.4488C64.5894 26.3515 64.73 27.1029 64.8706 27.8544C65.0346 28.5866 65.1869 29.3285 65.3275 30.08C65.468 30.8315 65.6086 31.5829 65.7492 32.3344C65.8898 33.0859 66.0304 33.8374 66.1709 34.5889C66.3115 35.3404 66.4521 36.0918 66.5927 36.8433C66.7567 37.5755 66.909 38.3174 67.0496 39.0689C67.073 39.0689 67.0847 39.0689 67.0847 39.0689C67.1081 39.0689 67.1198 39.0689 67.1198 39.0689C67.237 38.433 67.3541 37.7971 67.4713 37.1613C67.6119 36.5061 67.7407 35.8606 67.8579 35.2248C67.975 34.5889 68.0922 33.953 68.2093 33.3171C68.3499 32.662 68.4788 32.0165 68.5959 31.3806C68.7365 30.7255 68.8654 30.08 68.9825 29.4441C69.0997 28.8082 69.2168 28.1724 69.334 27.5365C69.4746 26.8814 69.6034 26.2358 69.7206 25.6H84.9032Z" fill="#DFC01F"/>
<path d="M48.7742 25.6H56.7226V47.2774H48.7742V25.6Z" fill="#DFC01F"/>
<path d="M33.0773 48.7225H47.329C47.329 49.4355 47.329 50.1581 47.329 50.8903C47.329 51.6032 47.329 52.3258 47.329 53.058C47.329 53.771 47.329 54.4935 47.329 55.2258C47.329 55.9387 47.329 56.6613 47.329 57.3935C47.329 58.1064 47.329 58.829 47.329 59.5612C47.329 61.3725 47.329 63.1838 47.329 64.9951C47.329 66.7871 47.329 68.5887 47.329 70.4H30.19L25.5258 59.9948C25.5258 59.9755 25.5134 59.9659 25.4887 59.9659C25.4887 59.9659 25.4764 59.9659 25.4517 59.9659C25.4517 59.9659 25.4517 59.9755 25.4517 59.9948C25.4517 61.6904 25.4517 63.4246 25.4517 65.1974C25.4517 66.9701 25.4517 68.7043 25.4517 70.4H11.2C11.2 68.9548 11.2 67.5096 11.2 66.0645C11.2 64.6193 11.2 63.1741 11.2 61.729C11.2 60.2838 11.2 58.8387 11.2 57.3935C11.2 55.9483 11.2 54.5032 11.2 53.058C11.2 51.6129 11.2 50.1677 11.2 48.7225H27.7838L33.0033 60.7174C33.028 60.7174 33.0403 60.7174 33.0403 60.7174C33.065 60.7174 33.0773 60.7174 33.0773 60.7174C33.0773 60.6981 33.0773 60.6885 33.0773 60.6885V48.7225Z" fill="#DFC01F"/>
<path d="M71.5982 48.7225C73.8337 48.7225 75.7808 48.973 77.4394 49.474C79.1221 49.9557 80.5043 50.6205 81.586 51.4683C82.6917 52.2969 83.521 53.2411 84.0739 54.3009C84.6268 55.3606 84.9032 56.459 84.9032 57.5958C84.9032 58.8098 84.6147 59.9659 84.0378 61.0642C83.485 62.1433 82.6436 63.1067 81.5139 63.9545C80.4081 64.8024 79.0259 65.4768 77.3673 65.9778C75.7087 66.4595 73.7857 66.7003 71.5982 66.7003H63.846C63.846 66.7003 63.8339 66.71 63.8099 66.7292C63.8099 66.7292 63.7979 66.7292 63.7738 66.7292C63.7738 66.7292 63.7738 66.7389 63.7738 66.7581V70.4H48.7742C48.7742 69.1089 48.7742 67.8179 48.7742 66.5269C48.7742 65.2359 48.7742 63.9449 48.7742 62.6539C48.7742 61.3629 48.7742 60.0719 48.7742 58.7809C48.7742 57.4898 48.7742 56.1988 48.7742 54.9078C48.7742 53.8673 48.7742 52.8364 48.7742 51.8152C48.7742 50.7747 48.7742 49.7438 48.7742 48.7225H71.5982ZM67.1632 60.4283C67.8843 60.4283 68.4853 60.332 68.966 60.1393C69.4708 59.9274 69.8434 59.6672 70.0838 59.3589C70.3242 59.0314 70.4444 58.7038 70.4444 58.3762C70.4444 58.0294 70.3242 57.7114 70.0838 57.4224C69.8434 57.1141 69.4829 56.8636 69.0021 56.6709C68.5213 56.4782 67.9084 56.3819 67.1632 56.3819H63.846C63.8219 56.3819 63.7979 56.3915 63.7738 56.4108C63.7738 56.4108 63.7738 56.4204 63.7738 56.4397V60.3994C63.7979 60.3994 63.8099 60.4091 63.8099 60.4283C63.8339 60.4283 63.846 60.4283 63.846 60.4283H67.1632Z" fill="#DFC01F"/>
</svg>
