<svg width="100" height="100" viewBox="0 0 100 100" fill="none" xmlns="http://www.w3.org/2000/svg">
<mask id="mask0_49_98" style="mask-type:alpha" maskUnits="userSpaceOnUse" x="0" y="0" width="100" height="100">
<rect width="100" height="100" fill="#D9D9D9"/>
</mask>
<g mask="url(#mask0_49_98)">
<path d="M37.4449 27H21.001C15.4005 27 12.5981 27 10.459 28.0899C8.57736 29.0487 7.04867 30.5774 6.08993 32.459C5 34.5981 5 37.4005 5 43.001V71.001C5 76.6015 5 79.3979 6.08993 81.537C7.04867 83.4186 8.57736 84.9524 10.459 85.9111C12.596 87 15.395 87 20.9846 87H79.0155C84.605 87 87.4 87 89.537 85.9111C91.4186 84.9524 92.9524 83.4186 93.9111 81.537C95 79.3999 95 76.605 95 71.0155V42.9845C95 37.395 95 34.596 93.9111 32.459C92.9524 30.5774 91.4186 29.0487 89.537 28.0899C87.3979 27 84.6015 27 79.001 27H62.5541M37.4449 27H37.7539M37.4449 27C37.5075 27 37.5734 27 37.6428 27L37.7539 27M37.4449 27C36.9143 26.9998 36.617 26.997 36.3818 26.9707C33.4439 26.6418 31.4289 23.8454 32.0459 20.9542C32.1033 20.6851 32.2168 20.3447 32.4415 19.6706L32.4512 19.6421C32.7078 18.8721 32.8361 18.4872 32.9779 18.1475C34.4293 14.6694 37.7161 12.3041 41.4746 12.0271C41.8417 12 42.2451 12 43.0566 12H56.9429C57.7545 12 58.1612 12 58.5283 12.0271C62.2868 12.3041 65.5701 14.6694 67.0215 18.1475C67.1632 18.4872 67.2922 18.8717 67.5488 19.6416C67.78 20.335 67.8956 20.6818 67.9538 20.9547C68.5708 23.8458 66.559 26.6418 63.6211 26.9707C63.3859 26.997 63.0856 26.9998 62.5541 27M37.7539 27H62.2449M62.2449 27H62.5541M62.2449 27L62.3559 27C62.4254 27 62.4914 27 62.5541 27M50 72C41.7157 72 35 65.2843 35 57C35 48.7157 41.7157 42 50 42C58.2843 42 65 48.7157 65 57C65 65.2843 58.2843 72 50 72Z" stroke="#1E1E1E" stroke-width="8" stroke-linecap="round" stroke-linejoin="round"/>
</g>
</svg>
