<svg width="108" height="108" viewBox="0 0 108 108" fill="none" xmlns="http://www.w3.org/2000/svg">
<path d="M70.6675 42.8885L48.4449 65.111L37.3336 53.9997M60.9234 6.54889L67.7066 12.3295C69.4156 13.7859 71.5375 14.6663 73.7757 14.8449L82.6594 15.5529C87.8824 15.9697 92.0311 20.1158 92.4479 25.3388L93.1542 34.224C93.3328 36.4622 94.2164 38.5872 95.6728 40.2961L101.451 47.0775C104.849 51.0654 104.85 56.9316 101.451 60.9196L95.6733 67.702C94.217 69.4109 93.3345 71.5367 93.1559 73.7749L92.4452 82.6586C92.0284 87.8816 87.8861 92.0303 82.6631 92.4471L73.7762 93.1562C71.5381 93.3348 69.4141 94.2129 67.7052 95.6693L60.9234 101.45C56.9354 104.849 51.0657 104.849 47.0777 101.451L40.2959 95.6698C38.587 94.2134 36.463 93.3337 34.2248 93.1551L25.338 92.4471C20.1149 92.0303 15.9727 87.8826 15.5559 82.6596L14.8452 73.7754C14.6666 71.5373 13.7841 69.4133 12.3278 67.7044L6.54969 60.9199C3.15117 56.9319 3.14957 51.0676 6.54809 47.0796L12.3314 40.2951C13.7877 38.5862 14.6617 36.4622 14.8403 34.224L15.551 25.3399C15.9678 20.1168 20.122 15.9692 25.3451 15.5524L34.2221 14.8444C36.4603 14.6658 38.5853 13.786 40.2942 12.3297L47.0783 6.54889C51.0662 3.15037 56.9354 3.15037 60.9234 6.54889Z" stroke="#1E1E1E" stroke-width="8" stroke-linecap="round" stroke-linejoin="round"/>
</svg>
