<svg width="108" height="108" viewBox="0 0 108 108" fill="none" xmlns="http://www.w3.org/2000/svg">
<path d="M98.4441 26.2222H86.4923C83.7283 26.2222 81.7776 23.4306 81.7776 20.6666C81.7776 11.4619 74.3157 4 65.111 4C55.9063 4 48.4444 11.4619 48.4444 20.6666C48.4444 23.4306 46.4935 26.2222 43.7296 26.2222H31.7777C28.7095 26.2222 26.2222 28.7095 26.2222 31.7777V43.7296C26.2222 46.4935 23.4306 48.4444 20.6666 48.4444C11.4619 48.4444 4 55.9063 4 65.111C4 74.3157 11.4619 81.7776 20.6666 81.7776C23.4306 81.7776 26.2222 83.7283 26.2222 86.4923V98.4443C26.2222 101.513 28.7095 104 31.7777 104L98.4443 104C101.513 104 104 101.512 104 98.4441V86.4923C104 83.7283 101.208 81.7776 98.4443 81.7776C89.2396 81.7776 81.7776 74.3157 81.7776 65.111C81.7776 55.9063 89.2396 48.4444 98.4443 48.4444C101.208 48.4444 104 46.4935 104 43.7296L104 31.7777C104 28.7095 101.512 26.2222 98.4441 26.2222Z" stroke="#1E1E1E" stroke-width="8" stroke-linecap="round" stroke-linejoin="round"/>
</svg>
