<svg width="53" height="32" viewBox="0 0 53 32" fill="none" xmlns="http://www.w3.org/2000/svg">
<path d="M0 0H25.8065V15.4839H0V0Z" fill="#DFC01F"/>
<path d="M52.6452 0C52.277 1.03226 51.9005 2.06452 51.5155 3.09677C51.1473 4.12903 50.7708 5.16129 50.3859 6.19355C50.0177 7.22581 49.6411 8.25807 49.2562 9.29032C48.888 10.3226 48.5115 11.3548 48.1266 12.3871C47.7584 13.4194 47.3818 14.4516 46.9969 15.4839H32.4619C31.8427 13.7634 31.2151 12.043 30.5792 10.3226C29.96 8.60215 29.3407 6.88172 28.7215 5.16129C28.1023 3.44086 27.4747 1.72043 26.8387 0H38.0349C38.1353 0.536775 38.2358 1.07355 38.3362 1.61032C38.4533 2.13333 38.5621 2.66323 38.6625 3.2C38.7629 3.73677 38.8633 4.27355 38.9638 4.81032C39.0642 5.3471 39.1646 5.88387 39.265 6.42065C39.3654 6.95742 39.4658 7.49419 39.5662 8.03097C39.6834 8.55398 39.7922 9.08387 39.8926 9.62065C39.9093 9.62065 39.9177 9.62065 39.9177 9.62065C39.9344 9.62065 39.9428 9.62065 39.9428 9.62065C40.0265 9.16645 40.1102 8.71226 40.1938 8.25807C40.2942 7.79011 40.3863 7.32903 40.47 6.87484C40.5537 6.42065 40.6373 5.96645 40.721 5.51226C40.8214 5.0443 40.9135 4.58323 40.9971 4.12903C41.0976 3.66108 41.1896 3.2 41.2733 2.74581C41.357 2.29161 41.4406 1.83742 41.5243 1.38323C41.6247 0.91527 41.7168 0.454194 41.8005 0H52.6452Z" fill="#DFC01F"/>
<path d="M26.8387 0H32.5162V15.4839H26.8387V0Z" fill="#DFC01F"/>
<path d="M15.6267 16.5161H25.8065C25.8065 17.0254 25.8065 17.5415 25.8065 18.0645C25.8065 18.5737 25.8065 19.0899 25.8065 19.6129C25.8065 20.1221 25.8065 20.6383 25.8065 21.1613C25.8065 21.6705 25.8065 22.1867 25.8065 22.7097C25.8065 23.2189 25.8065 23.735 25.8065 24.258C25.8065 25.5518 25.8065 26.8456 25.8065 28.1393C25.8065 29.4193 25.8065 30.7062 25.8065 32H13.5643L10.2327 24.5677C10.2327 24.554 10.2239 24.5471 10.2062 24.5471C10.2062 24.5471 10.1974 24.5471 10.1798 24.5471C10.1798 24.5471 10.1798 24.554 10.1798 24.5677C10.1798 25.7789 10.1798 27.0176 10.1798 28.2839C10.1798 29.5501 10.1798 30.7888 10.1798 32H0C0 30.9677 0 29.9355 0 28.9032C0 27.871 0 26.8387 0 25.8064C0 24.7742 0 23.7419 0 22.7097C0 21.6774 0 20.6451 0 19.6129C0 18.5806 0 17.5484 0 16.5161H11.8456L15.5738 25.0839C15.5914 25.0839 15.6002 25.0839 15.6002 25.0839C15.6178 25.0839 15.6267 25.0839 15.6267 25.0839C15.6267 25.0701 15.6267 25.0632 15.6267 25.0632V16.5161Z" fill="#DFC01F"/>
<path d="M43.1416 16.5161C44.7384 16.5161 46.1292 16.695 47.3139 17.0529C48.5158 17.397 49.5031 17.8718 50.2757 18.4774C51.0656 19.0692 51.6579 19.7436 52.0528 20.5006C52.4477 21.2576 52.6452 22.0421 52.6452 22.8542C52.6452 23.7213 52.4392 24.5471 52.0271 25.3316C51.6322 26.1024 51.0312 26.7905 50.2242 27.3961C49.4344 28.0017 48.4471 28.4834 47.2624 28.8413C46.0777 29.1854 44.7041 29.3574 43.1416 29.3574H37.6043C37.6043 29.3574 37.5957 29.3643 37.5786 29.378C37.5786 29.378 37.57 29.378 37.5528 29.378C37.5528 29.378 37.5528 29.3849 37.5528 29.3987V32H26.8387C26.8387 31.0778 26.8387 30.1557 26.8387 29.2335C26.8387 28.3114 26.8387 27.3892 26.8387 26.4671C26.8387 25.5449 26.8387 24.6228 26.8387 23.7006C26.8387 22.7785 26.8387 21.8563 26.8387 20.9342C26.8387 20.191 26.8387 19.4546 26.8387 18.7251C26.8387 17.9819 26.8387 17.2456 26.8387 16.5161H43.1416ZM39.9738 24.8774C40.4889 24.8774 40.9181 24.8086 41.2615 24.671C41.6221 24.5196 41.8882 24.3337 42.0599 24.1135C42.2316 23.8796 42.3175 23.6456 42.3175 23.4116C42.3175 23.1639 42.2316 22.9368 42.0599 22.7303C41.8882 22.5101 41.6307 22.3312 41.2873 22.1935C40.9439 22.0559 40.506 21.9871 39.9738 21.9871H37.6043C37.5871 21.9871 37.57 21.994 37.5528 22.0077C37.5528 22.0077 37.5528 22.0146 37.5528 22.0284V24.8568C37.57 24.8568 37.5786 24.8636 37.5786 24.8774C37.5957 24.8774 37.6043 24.8774 37.6043 24.8774H39.9738Z" fill="#DFC01F"/>
</svg>
