<svg width="67" height="87" viewBox="0 0 67 87" fill="none" xmlns="http://www.w3.org/2000/svg">
<path d="M5.06931e-05 38.9766V61.2386C5.06931e-05 62.6761 1.16415 63.8441 2.60165 63.8441C4.04305 63.8441 5.20715 62.6761 5.20715 61.2386V53.1331H8.95715L13.6564 62.4143C14.0978 63.2893 14.9962 63.844 15.9767 63.844C16.3868 63.8401 16.7892 63.7463 17.1564 63.5627C18.4376 62.9104 18.9494 61.3439 18.3009 60.0627L14.2579 52.0822C17.6798 50.2853 19.4181 46.3674 18.4532 42.6252C17.4844 38.8791 14.0743 36.2932 10.2071 36.3752H2.59375C1.90234 36.3752 1.24215 36.6487 0.753951 37.1369C0.269571 37.6252 -0.00384931 38.2891 5.06931e-05 38.9766ZM5.20705 41.5821H10.2071C11.9571 41.5821 13.379 43.004 13.379 44.754C13.379 46.504 11.9571 47.9259 10.2071 47.9259H5.20705V41.5821ZM37.945 63.8441C38.6365 63.8441 39.3005 63.5667 39.7888 63.0785C40.2771 62.5902 40.5506 61.93 40.5506 61.2386V45.9146C40.5506 40.6413 36.2733 36.3638 30.9998 36.3638C25.7225 36.3638 21.4451 40.6411 21.4451 45.9146V61.2386C21.4451 62.6761 22.6131 63.8441 24.0506 63.8441C25.4881 63.8441 26.6561 62.6761 26.6561 61.2386V54.2269H35.3436V61.2386C35.3436 62.6761 36.5075 63.8441 37.945 63.8441ZM26.6561 49.0201V45.8951C26.6561 43.4967 28.6014 41.5513 30.9999 41.5513C33.3983 41.5513 35.3437 43.4966 35.3437 45.8951V49.0201H26.6561ZM66.6641 38.9771V57.6331C66.6601 60.2698 65.1484 62.6683 62.7773 63.8128C60.4023 64.9573 57.586 64.6448 55.5196 63.0081C53.4532 64.6448 50.6368 64.9573 48.2618 63.8128C45.8907 62.6683 44.3789 60.2698 44.375 57.6331V38.9771C44.375 37.5396 45.5392 36.3755 46.9767 36.3755C48.4181 36.3755 49.5821 37.5396 49.5821 38.9771V57.6331C49.5821 58.555 50.3282 59.3011 51.2501 59.3011C52.1681 59.3011 52.9142 58.555 52.9142 57.6331V38.9771C52.9142 37.5396 54.0822 36.3755 55.5197 36.3755C56.9572 36.3755 58.1252 37.5396 58.1252 38.9771V57.6331C58.1252 58.555 58.8713 59.3011 59.7893 59.3011C60.7112 59.3011 61.4573 58.555 61.4573 57.6331V38.9771C61.4573 37.5396 62.6215 36.3755 64.0629 36.3755C65.5004 36.3755 66.6641 37.5396 66.6641 38.9771ZM62.2696 30.1138C62.961 30.1138 63.6212 29.8403 64.1094 29.3521C64.5976 28.8638 64.875 28.1998 64.875 27.5083V21.727C64.8437 21.0825 64.5781 20.4692 64.125 20.0082L45.27 0.78125C44.7817 0.28125 44.1138 0 43.4145 0H10.6135C5.73457 0 1.78147 3.9531 1.78147 8.832V27.52C1.78147 28.9575 2.94557 30.1255 4.38307 30.1255C5.82447 30.1255 6.98857 28.9575 6.98857 27.52V8.832C6.98857 6.8281 8.60967 5.207 10.6136 5.207H40.4456V15.625C40.4807 20.4766 44.4261 24.3945 49.2815 24.3945H59.6995V27.5195H59.6956C59.7034 28.9453 60.8558 30.1015 62.2815 30.1133L62.2696 30.1138ZM49.2816 19.1878C47.2777 19.1878 45.6566 17.5628 45.6566 15.5628V8.59397L56.0826 19.188L49.2816 19.1878ZM64.9066 77.4178V77.4139C64.9066 82.2928 60.9496 86.2498 56.0707 86.2498H10.6137C5.73475 86.2498 1.78165 82.2928 1.78165 77.4139V71.8006C1.78165 70.3631 2.94575 69.1951 4.38325 69.1951C5.82465 69.1951 6.98875 70.3631 6.98875 71.8006V77.4568C6.98875 79.4607 8.60985 81.0818 10.6138 81.0818H56.0518C57.0127 81.0818 57.9346 80.699 58.6143 80.0193C59.294 79.3396 59.6768 78.4177 59.6768 77.4568V71.8006C59.6768 70.3631 60.8409 69.1951 62.2823 69.1951C63.7198 69.1951 64.8839 70.3631 64.8839 71.8006L64.9066 77.4178Z" fill="black"/>
</svg>
