<svg width="87" height="72" viewBox="0 0 87 72" fill="none" xmlns="http://www.w3.org/2000/svg">
<path d="M77.0387 11.875H74.6442C73.0544 11.875 71.609 10.9415 70.9567 9.49225L69.1872 5.46885C67.6911 2.14465 64.3864 4.77883e-05 60.738 4.77883e-05H25.582C21.9218 -0.0116712 18.6015 2.13285 17.1015 5.46885L15.332 9.49225C14.6797 10.9414 13.2343 11.875 11.6445 11.875H9.25C4.1367 11.8829 0 16.0273 0 21.1367V62.7107C0.003906 67.8162 4.1406 71.9529 9.25 71.9607H77.039C82.1484 71.9529 86.2851 67.8162 86.289 62.7107V21.1367C86.289 16.0273 82.152 11.8828 77.0387 11.875ZM9.2457 17.082H11.6402L11.6441 17.086C15.2925 17.086 18.5972 14.9415 20.0933 11.6172L21.8863 7.59765L21.8824 7.59375C22.5426 6.14455 23.9879 5.21095 25.5816 5.21095H60.7066C62.3004 5.21095 63.7457 6.14454 64.4058 7.59375L66.1988 11.6132L66.1949 11.6172C67.691 14.9414 70.9957 17.086 74.6441 17.086H77.0386C79.273 17.0899 81.0816 18.9024 81.0816 21.1368V34.1798H63.3746C61.9332 34.1798 60.7691 35.3439 60.7691 36.7814C60.7691 41.4533 58.9136 45.9337 55.6129 49.2384C52.3082 52.5392 47.8277 54.3946 43.1599 54.3986C38.488 54.3986 34.0076 52.5431 30.7029 49.2424C27.3982 45.9416 25.5427 41.4612 25.5388 36.7894C25.5388 32.1175 27.3904 27.6371 30.695 24.3324C33.9958 21.0277 38.4723 19.1722 43.144 19.1683C44.5815 19.1683 45.7495 18.0042 45.7495 16.5628C45.7495 15.1253 44.5815 13.9612 43.144 13.9612C37.5424 13.9651 32.14 16.0276 27.96 19.7542C23.7803 23.4847 21.1123 28.6136 20.4678 34.1802H5.20579V21.1372C5.20579 18.9028 7.01439 17.0903 9.24879 17.0864L9.2457 17.082ZM77.0387 66.75H9.2497C7.0153 66.75 5.2067 64.9415 5.2067 62.711V39.3869H20.4687C21.3203 46.8791 25.8164 53.469 32.4847 56.992C39.1566 60.5154 47.1327 60.5154 53.8047 56.992C60.4727 53.4686 64.9687 46.8789 65.8207 39.3869H81.0827V62.711C81.0827 63.7813 80.6569 64.8087 79.8991 65.5665C79.1413 66.3243 78.1139 66.75 77.0397 66.75H77.0387ZM43.1437 26.855C45.7765 26.855 48.2999 27.9019 50.1632 29.7612C52.0265 31.6245 53.0694 34.148 53.0694 36.7808C53.0694 39.4136 52.0264 41.941 50.1632 43.8003C48.2999 45.6636 45.7765 46.7104 43.1437 46.7104C41.7062 46.7104 40.5382 45.5424 40.5382 44.1049C40.5382 42.6674 41.7062 41.4995 43.1437 41.4995C45.0539 41.4995 46.7726 40.351 47.5031 38.5892C48.2336 36.8236 47.8312 34.7962 46.4797 33.4447C45.132 32.097 43.1008 31.6908 41.3391 32.4213C39.5735 33.1518 38.425 34.8745 38.425 36.7808C38.425 38.2222 37.2609 39.3862 35.8195 39.3862C34.382 39.3862 33.2179 38.2222 33.2179 36.7808C33.2179 31.3003 37.6593 26.855 43.1437 26.855Z" fill="black"/>
</svg>
