<svg width="87" height="87" viewBox="0 0 87 87" fill="none" xmlns="http://www.w3.org/2000/svg">
<path d="M43.145 0C31.704 0 20.727 4.543 12.637 12.637C4.5432 20.7268 0 31.703 0 43.145C0 54.587 4.543 65.563 12.637 73.653C20.7268 81.7468 31.703 86.29 43.145 86.29C54.587 86.29 65.563 81.747 73.653 73.653C81.7468 65.5632 86.29 54.587 86.29 43.145C86.2783 31.707 81.7275 20.739 73.638 12.653C65.5521 4.5632 54.583 0.0119999 43.146 0.000999928L43.145 0ZM58.707 8.5625L23.426 34.1955L17.3127 15.4455C22.7619 10.34 29.6017 6.9611 36.9647 5.7385C44.3319 4.5119 51.899 5.49221 58.707 8.5625ZM54.289 60.6445H32L25.1133 39.4065L43.1443 26.3015L61.1753 39.4065L54.289 60.6445ZM13.269 19.8005L26.476 60.6015H9.476C6.1244 54.1562 4.6948 46.8785 5.3705 39.6445C6.04238 32.4062 8.7847 25.5195 13.269 19.8005ZM12.7378 65.8125H52.5928L47.7881 80.6445C47.7841 80.7109 47.7841 80.7773 47.7881 80.8437C46.2608 81.0273 44.7256 81.1211 43.1865 81.125C31.1825 81.1289 19.8898 75.4487 12.7378 65.8125ZM53.5618 79.6015L65.6007 42.6245L79.7997 52.9365C76.3231 65.8035 66.3698 75.9175 53.5618 79.6015ZM80.8507 47.3125L47.5698 23.0825L63.7687 11.3205C74.5577 18.3127 81.0737 30.2895 81.0807 43.1445C81.0847 44.5351 81.0109 45.9297 80.8507 47.3125Z" fill="black"/>
</svg>
